<?xml version="1.0" encoding="utf-8"?>
<!-- Generator: Adobe Illustrator 26.3.1, SVG Export Plug-In . SVG Version: 6.00 Build 0)  -->
<svg version="1.1" id="Calque_1" xmlns="http://www.w3.org/2000/svg" xmlns:xlink="http://www.w3.org/1999/xlink" x="0px" y="0px"
	 viewBox="0 0 1920 1080" style="enable-background:new 0 0 1920 1080;" xml:space="preserve">
<style type="text/css">
	.st0{fill:#6C7D83;}
	.st1{fill:none;stroke:#6C7D83;stroke-miterlimit:10;}
	.st2{fill:#791D76;}
	.st3{fill:#0A828E;}
	.st4{fill:#68C5DE;}
	.st5{fill:#AC4F97;}
</style>
<g>
	<g>
		<g>
			<path class="st0" d="M875.3,479.54l-27.91-57.53l-28.01,57.53H875.3z M808.31,502.32l-18.9,38.95c-0.54,1.15-1.29,2.25-2.28,3.3
				c-2.28,2.21-4.98,3.3-8.1,3.3c-3.19,0-5.88-1.12-8.08-3.36s-3.3-4.92-3.3-8.03c0-2.2,0.57-4.17,1.71-5.92l67.55-139.19
				c0.53-1.22,1.33-2.36,2.4-3.42c2.2-2.28,4.9-3.42,8.08-3.42c3.11,0,5.81,1.15,8.08,3.42c0.92,0.92,1.63,1.9,2.17,2.96
				l67.55,139.19c1.28,1.83,1.94,3.95,1.94,6.38c0,3.11-1.13,5.79-3.37,8.03s-4.91,3.36-8.02,3.36c-3.2,0-5.9-1.09-8.1-3.3
				c-0.99-1.05-1.75-2.16-2.28-3.3h-0.12l-18.9-38.95H808.31z"/>
			<path class="st0" d="M873.97,478.92l-26.59-54.87l-26.68,54.87H873.97z M810.17,500.65l-18.01,37.15
				c-0.51,1.09-1.24,2.15-2.17,3.15c-2.17,2.11-4.74,3.16-7.7,3.16c-3.04,0-5.61-1.07-7.71-3.21c-2.09-2.13-3.13-4.69-3.13-7.65
				c0-2.11,0.54-3.99,1.63-5.65l64.33-132.75c0.5-1.16,1.26-2.25,2.28-3.26c2.09-2.17,4.66-3.26,7.7-3.26
				c2.98,0,5.54,1.09,7.71,3.26c0.87,0.87,1.55,1.82,2.05,2.83l64.35,132.75c1.22,1.74,1.84,3.76,1.84,6.08
				c0,2.96-1.08,5.52-3.2,7.65c-2.15,2.15-4.69,3.21-7.65,3.21c-3.04,0-5.61-1.05-7.71-3.16c-0.93-1-1.66-2.05-2.17-3.15h-0.11
				l-18.01-37.15H810.17z"/>
			<path class="st1" d="M873.97,478.92l-26.59-54.87l-26.68,54.87H873.97z M810.17,500.65l-18.01,37.15
				c-0.51,1.09-1.24,2.15-2.17,3.15c-2.17,2.11-4.74,3.16-7.7,3.16c-3.04,0-5.61-1.07-7.71-3.21c-2.09-2.13-3.13-4.69-3.13-7.65
				c0-2.11,0.54-3.99,1.63-5.65l64.33-132.75c0.5-1.16,1.26-2.25,2.28-3.26c2.09-2.17,4.66-3.26,7.7-3.26
				c2.98,0,5.54,1.09,7.71,3.26c0.87,0.87,1.55,1.82,2.05,2.83l64.35,132.75c1.22,1.74,1.84,3.76,1.84,6.08
				c0,2.96-1.08,5.52-3.2,7.65c-2.15,2.15-4.69,3.21-7.65,3.21c-3.04,0-5.61-1.05-7.71-3.16c-0.93-1-1.66-2.05-2.17-3.15h-0.11
				l-18.01-37.15H810.17z"/>
			<path class="st0" d="M950.24,536.26v-140.1c0-3.2,1.13-5.94,3.41-8.21c2.29-2.26,5.02-3.41,8.2-3.41c3.2,0,5.92,1.15,8.2,3.41
				c2.28,2.28,3.42,5.02,3.42,8.21v128.47h78.37c3.19,0,5.92,1.15,8.2,3.42c2.28,2.28,3.41,5.02,3.41,8.2c0,3.19-1.13,5.92-3.41,8.2
				c-2.28,2.28-5.02,3.42-8.2,3.42h-89.99c-3.19,0-5.91-1.15-8.2-3.42C951.37,542.18,950.24,539.45,950.24,536.26"/>
			<path class="st0" d="M954.02,533.02V399.4c0-3.04,1.07-5.65,3.19-7.82c2.13-2.17,4.67-3.26,7.65-3.26c2.98,0,5.53,1.09,7.66,3.26
				c2.12,2.17,3.19,4.78,3.19,7.82v122.53h73.13c2.99,0,5.53,1.09,7.66,3.26c2.12,2.17,3.19,4.78,3.19,7.82
				c0,3.04-1.07,5.65-3.19,7.82c-2.13,2.17-4.67,3.26-7.66,3.26h-83.98c-2.98,0-5.52-1.09-7.65-3.26
				C955.09,538.67,954.02,536.06,954.02,533.02"/>
			<path class="st1" d="M954.02,533.02V399.4c0-3.04,1.07-5.65,3.19-7.82c2.13-2.17,4.67-3.26,7.65-3.26c2.98,0,5.53,1.09,7.66,3.26
				c2.12,2.17,3.19,4.78,3.19,7.82v122.53h73.13c2.99,0,5.53,1.09,7.66,3.26c2.12,2.17,3.19,4.78,3.19,7.82
				c0,3.04-1.07,5.65-3.19,7.82c-2.13,2.17-4.67,3.26-7.66,3.26h-83.98c-2.98,0-5.52-1.09-7.65-3.26
				C955.09,538.67,954.02,536.06,954.02,533.02z"/>
			<path class="st0" d="M1181.35,419.51l-0.12,0.12c-10.08-7.9-21.83-11.85-35.19-11.85c-16.18,0-29.96,5.71-41.35,17.14
				c-11.39,11.43-17.09,25.2-17.09,41.3c0,16.1,5.7,29.86,17.09,41.28c11.39,11.43,25.17,17.14,41.35,17.14
				c16.1,0,29.88-5.73,41.35-17.19c10.54-10.56,15.84-19.33,15.84-26.32c0-0.54-0.05-1.07-0.12-1.59h-32.46
				c-3.2,0-5.92-1.15-8.2-3.42c-2.29-2.28-3.42-5-3.42-8.19c0-3.2,1.13-5.92,3.42-8.2c2.28-2.29,5-3.42,8.2-3.42h45.56
				c3.19,0,5.92,1.13,8.2,3.42c2.28,2.28,3.41,5,3.41,8.2c-0.08,21.41-8.08,40.09-24.03,56.03c-15.96,15.94-35.2,23.92-57.75,23.92
				s-41.81-7.98-57.75-23.92c-15.94-15.94-23.92-35.19-23.92-57.74c0-22.56,7.98-41.81,23.92-57.75
				c15.94-15.94,35.2-23.92,57.75-23.92c19.81,0,37.08,6.15,51.83,18.44l-0.12,0.12c0.08,0.08,0.14,0.16,0.22,0.24
				c2.28,2.26,3.42,5,3.42,8.19c0,3.19-1.15,5.92-3.42,8.2c-2.28,2.28-5,3.42-8.2,3.42c-3.19,0-5.91-1.15-8.2-3.42L1181.35,419.51z"
				/>
			<path class="st0" d="M1179.72,421.67l-0.11,0.11c-9.64-7.53-20.83-11.3-33.57-11.3c-15.43,0-28.57,5.45-39.44,16.35
				c-10.86,10.9-16.28,24.02-16.28,39.37c0,15.36,5.42,28.49,16.28,39.39c10.87,10.9,24.01,16.34,39.44,16.34
				c15.35,0,28.5-5.46,39.44-16.39c10.06-10.07,15.1-18.43,15.1-25.1c0-0.5-0.04-1.01-0.11-1.51h-30.96c-3.05,0-5.66-1.09-7.83-3.26
				c-2.17-2.17-3.26-4.78-3.26-7.82c0-3.04,1.09-5.65,3.26-7.82c2.17-2.17,4.78-3.25,7.83-3.25h43.44c3.04,0,5.65,1.08,7.83,3.25
				c2.16,2.17,3.25,4.78,3.25,7.82c-0.08,20.43-7.71,38.24-22.92,53.45c-15.22,15.2-33.57,22.81-55.08,22.81
				c-21.51,0-39.87-7.61-55.08-22.81c-15.2-15.2-22.81-33.57-22.81-55.08c0-21.51,7.61-39.86,22.81-55.07
				c15.2-15.2,33.57-22.83,55.08-22.83c18.9,0,35.37,5.87,49.43,17.6l-0.12,0.12c0.08,0.07,0.14,0.14,0.22,0.21
				c2.17,2.17,3.26,4.79,3.26,7.82c0,3.04-1.09,5.65-3.26,7.83c-2.17,2.16-4.78,3.25-7.82,3.25s-5.65-1.09-7.82-3.25L1179.72,421.67
				z"/>
			<path class="st1" d="M1179.72,421.67l-0.11,0.11c-9.64-7.53-20.83-11.3-33.57-11.3c-15.43,0-28.57,5.45-39.44,16.35
				c-10.86,10.9-16.28,24.02-16.28,39.37c0,15.36,5.42,28.49,16.28,39.39c10.87,10.9,24.01,16.34,39.44,16.34
				c15.35,0,28.5-5.46,39.44-16.39c10.06-10.07,15.1-18.43,15.1-25.1c0-0.5-0.04-1.01-0.11-1.51h-30.96c-3.05,0-5.66-1.09-7.83-3.26
				c-2.17-2.17-3.26-4.78-3.26-7.82c0-3.04,1.09-5.65,3.26-7.82c2.17-2.17,4.78-3.25,7.83-3.25h43.44c3.04,0,5.65,1.08,7.83,3.25
				c2.16,2.17,3.25,4.78,3.25,7.82c-0.08,20.43-7.71,38.24-22.92,53.45c-15.22,15.2-33.57,22.81-55.08,22.81
				c-21.51,0-39.87-7.61-55.08-22.81c-15.2-15.2-22.81-33.57-22.81-55.08c0-21.51,7.61-39.86,22.81-55.07
				c15.2-15.2,33.57-22.83,55.08-22.83c18.9,0,35.37,5.87,49.43,17.6l-0.12,0.12c0.08,0.07,0.14,0.14,0.22,0.21
				c2.17,2.17,3.26,4.79,3.26,7.82c0,3.04-1.09,5.65-3.26,7.83c-2.17,2.16-4.78,3.25-7.82,3.25s-5.65-1.09-7.82-3.25L1179.72,421.67
				z"/>
			<path class="st0" d="M1252.2,396.16c0-3.19,1.13-5.92,3.41-8.2c2.29-2.28,5.02-3.42,8.21-3.42h89.98c3.19,0,5.92,1.15,8.2,3.42
				c2.28,2.28,3.41,5.02,3.41,8.2c0,3.19-1.13,5.92-3.41,8.2c-2.28,2.28-5.02,3.42-8.2,3.42h-78.37v25.74h33.94
				c3.2,0,5.92,1.15,8.2,3.42c2.28,2.28,3.42,5,3.42,8.2c0,3.19-1.15,5.92-3.42,8.19c-2.28,2.28-5,3.42-8.2,3.42h-33.94v67.89h78.37
				c3.19,0,5.92,1.13,8.2,3.42c2.28,2.26,3.41,5,3.41,8.19c0,3.2-1.13,5.92-3.41,8.21c-2.28,2.26-5.02,3.41-8.2,3.41h-89.98
				c-3.2,0-5.92-1.15-8.21-3.41c-2.28-2.29-3.41-5.02-3.41-8.21V396.16z"/>
			<path class="st0" d="M1255.98,399.4c0-3.04,1.05-5.65,3.19-7.82c2.13-2.17,4.67-3.26,7.66-3.26h83.96c2.99,0,5.53,1.09,7.66,3.26
				c2.13,2.17,3.19,4.78,3.19,7.82c0,3.04-1.05,5.65-3.19,7.82c-2.13,2.17-4.67,3.26-7.66,3.26h-73.13v24.55h31.67
				c2.99,0,5.53,1.08,7.66,3.25c2.12,2.17,3.19,4.79,3.19,7.82c0,3.04-1.07,5.66-3.19,7.82c-2.13,2.17-4.67,3.26-7.66,3.26h-31.67
				v64.74h73.13c2.99,0,5.53,1.09,7.66,3.26c2.13,2.17,3.19,4.78,3.19,7.82s-1.05,5.65-3.19,7.82c-2.13,2.17-4.67,3.26-7.66,3.26
				h-83.96c-2.99,0-5.53-1.09-7.66-3.26c-2.13-2.17-3.19-4.78-3.19-7.82V399.4z"/>
			<path class="st1" d="M1255.98,399.4c0-3.04,1.05-5.65,3.19-7.82c2.13-2.17,4.67-3.26,7.66-3.26h83.96c2.99,0,5.53,1.09,7.66,3.26
				c2.13,2.17,3.19,4.78,3.19,7.82c0,3.04-1.05,5.65-3.19,7.82c-2.13,2.17-4.67,3.26-7.66,3.26h-73.13v24.55h31.67
				c2.99,0,5.53,1.08,7.66,3.25c2.12,2.17,3.19,4.79,3.19,7.82c0,3.04-1.07,5.66-3.19,7.82c-2.13,2.17-4.67,3.26-7.66,3.26h-31.67
				v64.74h73.13c2.99,0,5.53,1.09,7.66,3.26c2.13,2.17,3.19,4.78,3.19,7.82s-1.05,5.65-3.19,7.82c-2.13,2.17-4.67,3.26-7.66,3.26
				h-83.96c-2.99,0-5.53-1.09-7.66-3.26c-2.13-2.17-3.19-4.78-3.19-7.82V399.4z"/>
			<path class="st0" d="M1448.12,407.32h-35.08v49.33h35.08c6.83,0,12.65-2.41,17.47-7.24c4.83-4.82,7.24-10.65,7.24-17.48
				c0-6.75-2.41-12.55-7.24-17.38C1460.77,409.73,1454.95,407.32,1448.12,407.32 M1456.77,478.86c-2.82,0.46-5.69,0.68-8.65,0.68
				h-35.08v56.73c0,3.19-1.15,5.91-3.42,8.19c-2.28,2.29-5.02,3.42-8.2,3.42c-3.19,0-5.92-1.13-8.2-3.42
				c-2.28-2.28-3.42-5-3.42-8.19V396.16c0-3.19,1.15-5.92,3.42-8.2c2.28-2.28,5.02-3.41,8.2-3.41l46.71-0.12
				c13.12,0,24.34,4.63,33.65,13.9c9.31,9.25,13.95,20.46,13.95,33.6c0,13.14-4.63,24.34-13.89,33.6c-1.3,1.3-2.55,2.44-3.77,3.42
				l35.43,61.52c1.05,1.82,1.59,3.67,1.59,5.57c0,1.07-0.16,2.13-0.46,3.2c-0.83,3.11-2.65,5.46-5.46,7.06
				c-1.82,1.07-3.67,1.59-5.58,1.59c-1.05,0-2.12-0.14-3.19-0.45c-3.12-0.84-5.46-2.62-7.07-5.36L1456.77,478.86z"/>
			<path class="st0" d="M1448.38,410.04h-32.96v47.05h32.96c6.42,0,11.9-2.3,16.43-6.9c4.53-4.61,6.81-10.16,6.81-16.68
				c0-6.45-2.28-11.97-6.81-16.57C1460.28,412.34,1454.8,410.04,1448.38,410.04 M1456.51,478.27c-2.65,0.43-5.34,0.65-8.14,0.65
				h-32.96v54.11c0,3.04-1.07,5.65-3.21,7.82c-2.13,2.17-4.71,3.26-7.71,3.26c-2.99,0-5.56-1.09-7.7-3.26
				c-2.13-2.17-3.21-4.78-3.21-7.82V399.4c0-3.05,1.08-5.65,3.21-7.82c2.15-2.19,4.71-3.26,7.7-3.26l43.89-0.11
				c12.35,0,22.88,4.41,31.63,13.26c8.73,8.83,13.1,19.51,13.1,32.04c0,12.53-4.34,23.21-13.05,32.04c-1.22,1.24-2.4,2.32-3.54,3.26
				l33.29,58.66c1,1.74,1.5,3.51,1.5,5.32c0,1.03-0.14,2.04-0.43,3.05c-0.78,2.96-2.49,5.21-5.13,6.73
				c-1.71,1.01-3.46,1.53-5.24,1.53c-1,0-2-0.14-3-0.43c-2.92-0.8-5.13-2.5-6.64-5.11L1456.51,478.27z"/>
			<path class="st1" d="M1448.38,410.04h-32.96v47.05h32.96c6.42,0,11.9-2.3,16.43-6.9c4.53-4.61,6.81-10.16,6.81-16.68
				c0-6.45-2.28-11.97-6.81-16.57C1460.28,412.34,1454.8,410.04,1448.38,410.04z M1456.51,478.27c-2.65,0.43-5.34,0.65-8.14,0.65
				h-32.96v54.11c0,3.04-1.07,5.65-3.21,7.82c-2.13,2.17-4.71,3.26-7.71,3.26c-2.99,0-5.56-1.09-7.7-3.26
				c-2.13-2.17-3.21-4.78-3.21-7.82V399.4c0-3.05,1.08-5.65,3.21-7.82c2.15-2.19,4.71-3.26,7.7-3.26l43.89-0.11
				c12.35,0,22.88,4.41,31.63,13.26c8.73,8.83,13.1,19.51,13.1,32.04c0,12.53-4.34,23.21-13.05,32.04c-1.22,1.24-2.4,2.32-3.54,3.26
				l33.29,58.66c1,1.74,1.5,3.51,1.5,5.32c0,1.03-0.14,2.04-0.43,3.05c-0.78,2.96-2.49,5.21-5.13,6.73
				c-1.71,1.01-3.46,1.53-5.24,1.53c-1,0-2-0.14-3-0.43c-2.92-0.8-5.13-2.5-6.64-5.11L1456.51,478.27z"/>
			<path class="st0" d="M1555.76,387.96c2.28,2.28,3.41,5.02,3.41,8.2v140.11c0,3.19-1.13,5.91-3.41,8.19
				c-2.28,2.29-5.02,3.42-8.2,3.42c-3.2,0-5.92-1.13-8.2-3.42c-2.28-2.28-3.41-5-3.41-8.19V396.16c0-3.19,1.13-5.92,3.41-8.2
				c2.28-2.28,5-3.41,8.2-3.41C1550.74,384.55,1553.48,385.68,1555.76,387.96"/>
			<path class="st0" d="M1553.09,391.58c1.54,2.17,2.3,4.78,2.3,7.82v133.62c0,3.04-0.76,5.65-2.3,7.82
				c-1.54,2.17-3.38,3.26-5.53,3.26c-2.16,0-4-1.09-5.54-3.26c-1.53-2.17-2.3-4.78-2.3-7.82V399.4c0-3.04,0.78-5.65,2.3-7.82
				c1.54-2.17,3.38-3.25,5.54-3.25C1549.71,388.33,1551.55,389.41,1553.09,391.58"/>
			<path class="st1" d="M1553.09,391.58c1.54,2.17,2.3,4.78,2.3,7.82v133.62c0,3.04-0.76,5.65-2.3,7.82
				c-1.54,2.17-3.38,3.26-5.53,3.26c-2.16,0-4-1.09-5.54-3.26c-1.53-2.17-2.3-4.78-2.3-7.82V399.4c0-3.04,0.78-5.65,2.3-7.82
				c1.54-2.17,3.38-3.25,5.54-3.25C1549.71,388.33,1551.55,389.41,1553.09,391.58z"/>
			<path class="st0" d="M1689.26,479.54l-27.91-57.53l-28.01,57.53H1689.26z M1622.28,502.32l-18.9,38.95
				c-0.54,1.15-1.29,2.25-2.28,3.3c-2.28,2.21-4.98,3.3-8.08,3.3c-3.2,0-5.9-1.12-8.1-3.36c-2.2-2.24-3.3-4.92-3.3-8.03
				c0-2.2,0.58-4.17,1.71-5.92l67.55-139.19c0.53-1.22,1.33-2.36,2.4-3.42c2.19-2.28,4.88-3.42,8.08-3.42
				c3.11,0,5.81,1.15,8.08,3.42c0.92,0.92,1.63,1.9,2.17,2.96l67.55,139.19c1.29,1.83,1.92,3.95,1.92,6.38
				c0,3.11-1.12,5.79-3.36,8.03s-4.91,3.36-8.03,3.36c-3.19,0-5.88-1.09-8.08-3.3c-0.99-1.05-1.75-2.16-2.28-3.3h-0.12l-18.9-38.95
				H1622.28z"/>
			<path class="st0" d="M1687.94,478.92l-26.59-54.87l-26.68,54.87H1687.94z M1624.13,500.65l-18.01,37.15
				c-0.51,1.09-1.22,2.15-2.17,3.15c-2.17,2.11-4.74,3.16-7.7,3.16c-3.04,0-5.61-1.07-7.71-3.21c-2.09-2.13-3.15-4.69-3.15-7.65
				c0-2.11,0.55-3.99,1.63-5.65l64.35-132.75c0.5-1.16,1.26-2.25,2.28-3.26c2.09-2.17,4.66-3.26,7.7-3.26
				c2.96,0,5.54,1.09,7.71,3.26c0.87,0.87,1.54,1.82,2.05,2.83l64.35,132.75c1.22,1.74,1.84,3.76,1.84,6.08
				c0,2.96-1.08,5.52-3.2,7.65c-2.15,2.15-4.69,3.21-7.65,3.21c-3.04,0-5.61-1.05-7.71-3.16c-0.93-1-1.66-2.05-2.17-3.15h-0.11
				l-18.01-37.15H1624.13z"/>
			<path class="st1" d="M1687.94,478.92l-26.59-54.87l-26.68,54.87H1687.94z M1624.13,500.65l-18.01,37.15
				c-0.51,1.09-1.22,2.15-2.17,3.15c-2.17,2.11-4.74,3.16-7.7,3.16c-3.04,0-5.61-1.07-7.71-3.21c-2.09-2.13-3.15-4.69-3.15-7.65
				c0-2.11,0.55-3.99,1.63-5.65l64.35-132.75c0.5-1.16,1.26-2.25,2.28-3.26c2.09-2.17,4.66-3.26,7.7-3.26
				c2.96,0,5.54,1.09,7.71,3.26c0.87,0.87,1.54,1.82,2.05,2.83l64.35,132.75c1.22,1.74,1.84,3.76,1.84,6.08
				c0,2.96-1.08,5.52-3.2,7.65c-2.15,2.15-4.69,3.21-7.65,3.21c-3.04,0-5.61-1.05-7.71-3.16c-0.93-1-1.66-2.05-2.17-3.15h-0.11
				l-18.01-37.15H1624.13z"/>
			<path class="st0" d="M830.55,616.76v128.93c0,3.2-1.15,5.92-3.41,8.2c-2.29,2.28-5.02,3.42-8.21,3.42
				c-3.19,0-5.92-1.15-8.19-3.42c-2.29-2.28-3.42-5-3.42-8.2V616.76h-33.94c-3.2,0-5.92-1.15-8.2-3.42c-2.29-2.28-3.42-5-3.42-8.2
				c0-3.19,1.13-5.91,3.42-8.19c2.28-2.29,5-3.42,8.2-3.42h90.66c3.19,0,5.92,1.13,8.2,3.42c2.28,2.28,3.41,5,3.41,8.19
				c0,3.2-1.13,5.92-3.41,8.2c-2.28,2.28-5.02,3.42-8.2,3.42H830.55z"/>
			<path class="st0" d="M898.66,605.6c0-3.19,1.13-5.92,3.41-8.2c2.29-2.28,5.02-3.42,8.21-3.42h89.98c3.19,0,5.92,1.15,8.2,3.42
				c2.28,2.28,3.41,5.02,3.41,8.2c0,3.2-1.13,5.92-3.41,8.2c-2.28,2.28-5.02,3.42-8.2,3.42H921.9v25.74h33.94
				c3.2,0,5.92,1.13,8.2,3.42c2.28,2.28,3.42,5,3.42,8.2c0,3.19-1.15,5.91-3.42,8.19c-2.28,2.28-5,3.42-8.2,3.42H921.9v67.89h78.37
				c3.19,0,5.92,1.13,8.2,3.42c2.28,2.28,3.41,5,3.41,8.19c0,3.2-1.13,5.92-3.41,8.21c-2.28,2.26-5.02,3.41-8.2,3.41h-89.98
				c-3.2,0-5.92-1.15-8.21-3.41c-2.28-2.29-3.41-5.02-3.41-8.21V605.6z"/>
			<path class="st0" d="M1059.49,638.17V745.7c0,3.19-1.15,5.92-3.41,8.2c-2.28,2.28-5.02,3.41-8.21,3.41
				c-3.19,0-5.91-1.13-8.19-3.41c-2.29-2.28-3.42-5.02-3.42-8.2V605.59c0-3.19,1.13-5.91,3.42-8.2c2.28-2.28,5-3.41,8.19-3.41
				c3.2,0,5.94,1.13,8.21,3.41c0.91,0.92,1.62,1.91,2.16,2.98l91.93,113.44V605.59c0-3.19,1.13-5.91,3.41-8.2
				c2.28-2.28,5.02-3.41,8.2-3.41c3.19,0,5.92,1.13,8.2,3.41c2.28,2.29,3.41,5.02,3.41,8.2V745.7c0,3.19-1.13,5.92-3.41,8.2
				c-2.28,2.28-5.02,3.41-8.2,3.41c-3.19,0-5.92-1.13-8.2-3.41c-0.3-0.3-0.62-0.57-0.91-0.8L1059.49,638.17z"/>
			<path class="st0" d="M1252.22,617.22h-33.37v116.86h33.37c16.1,0,29.86-5.71,41.28-17.14c11.43-11.44,17.15-25.2,17.15-41.3
				c0-16.1-5.73-29.86-17.15-41.3C1282.08,622.92,1268.32,617.22,1252.22,617.22 M1207.23,757.32c-3.19,0-5.92-1.15-8.2-3.41
				c-2.28-2.28-3.42-5.02-3.42-8.21V605.6c0-3.19,1.15-5.92,3.42-8.2c2.28-2.28,5.02-3.42,8.2-3.42h45
				c22.55,0,41.8,7.98,57.75,23.93c15.94,15.94,23.92,35.19,23.92,57.74c0,22.55-7.98,41.81-23.92,57.75
				c-15.96,15.96-35.2,23.92-57.75,23.92H1207.23z"/>
			<path class="st0" d="M1358.38,605.6c0-3.19,1.15-5.92,3.42-8.2c2.28-2.28,5-3.42,8.2-3.42h89.98c3.19,0,5.92,1.15,8.2,3.42
				c2.28,2.28,3.42,5.02,3.42,8.2c0,3.2-1.15,5.92-3.42,8.2c-2.28,2.28-5.02,3.42-8.2,3.42h-78.35v25.74h33.92
				c3.2,0,5.94,1.13,8.21,3.42c2.26,2.28,3.41,5,3.41,8.2c0,3.19-1.15,5.91-3.41,8.19c-2.28,2.28-5.02,3.42-8.21,3.42h-33.92v67.89
				h78.35c3.19,0,5.92,1.13,8.2,3.42c2.28,2.28,3.42,5,3.42,8.19c0,3.2-1.15,5.92-3.42,8.21c-2.28,2.26-5.02,3.41-8.2,3.41H1370
				c-3.2,0-5.92-1.15-8.2-3.41c-2.28-2.29-3.42-5.02-3.42-8.21V605.6z"/>
			<path class="st0" d="M1554.3,616.76h-35.08v49.33h35.08c6.83,0,12.65-2.41,17.48-7.24c4.82-4.82,7.23-10.65,7.23-17.48
				c0-6.75-2.41-12.55-7.23-17.38C1566.95,619.16,1561.13,616.76,1554.3,616.76 M1562.95,688.29c-2.8,0.46-5.69,0.68-8.65,0.68
				h-35.08v56.73c0,3.19-1.15,5.92-3.42,8.2c-2.28,2.28-5.02,3.41-8.2,3.41c-3.19,0-5.92-1.13-8.2-3.41
				c-2.28-2.28-3.41-5.02-3.41-8.2V605.61c0-3.2,1.13-5.92,3.41-8.21c2.28-2.28,5.02-3.41,8.2-3.41l46.71-0.12
				c13.12,0,24.35,4.63,33.66,13.9c9.29,9.27,13.94,20.46,13.94,33.6c0,13.14-4.63,24.34-13.89,33.61
				c-1.29,1.29-2.55,2.42-3.77,3.41l35.43,61.52c1.07,1.82,1.59,3.67,1.59,5.57c0,1.07-0.16,2.13-0.46,3.2
				c-0.83,3.12-2.65,5.46-5.46,7.06c-1.82,1.07-3.67,1.59-5.58,1.59c-1.05,0-2.12-0.14-3.19-0.45c-3.12-0.83-5.46-2.62-7.06-5.36
				L1562.95,688.29z"/>
			<path class="st0" d="M1630.72,700.36c0-3.11,1.11-5.79,3.3-8.03c2.2-2.24,4.9-3.36,8.08-3.36c3.12,0,5.79,1.12,8.03,3.36
				c2.24,2.24,3.37,4.92,3.37,8.03c0,9.41,3.32,17.47,9.97,24.16c6.65,6.67,14.7,10.02,24.2,10.02c9.43,0,17.47-3.34,24.16-10.02
				c6.67-6.69,10.02-14.74,10.02-24.16c0-9.41-3.34-17.47-10.02-24.14c-6.69-6.67-14.73-10.02-24.16-10.02
				c-9.94,0-18.4-3.53-25.39-10.54c-6.99-7.03-10.48-15.47-10.48-25.34c0-9.94,3.49-18.42,10.48-25.41
				c6.99-6.98,15.46-10.48,25.39-10.48c9.19,0,17.17,3.04,23.92,9.11c0.38,0.32,0.8,0.66,1.25,1.04c2.21,2.26,3.3,4.98,3.3,8.08
				c0,3.19-1.12,5.88-3.36,8.1c-2.24,2.19-4.91,3.29-8.03,3.29c-3.19,0-5.88-1.11-8.08-3.29c-0.3-0.32-0.57-0.58-0.8-0.8l-0.11,0.11
				c-2.36-1.9-5.06-2.84-8.1-2.84c-3.65,0-6.73,1.28-9.28,3.82c-2.54,2.54-3.82,5.63-3.82,9.28c0,3.65,1.28,6.74,3.82,9.28
				c2.55,2.54,5.63,3.82,9.28,3.82c15.73,0,29.15,5.57,40.27,16.68c11.12,11.14,16.68,24.55,16.68,40.27
				c0,15.72-5.56,29.13-16.68,40.27c-11.12,11.12-24.54,16.68-40.27,16.68c-15.78,0-29.22-5.56-40.32-16.68
				C1636.27,729.5,1630.72,716.08,1630.72,700.36"/>
			<path class="st2" d="M655.83,614.33c32.5-29.3,48.12-58.05,48.26-58.34l6.9-13.3c29.26-56.29,7.25-125.89-49.05-155.14
				L528,317.96c1.74,1.82,3.46,3.67,5.2,5.59c29.55,32.81,47.81,72.55,48.58,74.23c0.91,2.16,20.39,49.76,23.87,134.41
				c2.41,58.65-4.9,102.29-9.4,122.86C610.33,647.56,634.87,633.22,655.83,614.33"/>
			<path class="st3" d="M364.17,754.07c-29.55-32.81-47.83-72.55-48.59-74.23c-0.93-2.49-18.61-51.67-22.01-134.65
				c-2.49-60.46,3.82-102.84,7.81-122.78c-14.05,7.46-38.74,21.87-59.83,40.86c-20.73,18.69-32.62,35.65-38.97,46.58l-14.24,27.46
				c-29.26,56.3-7.25,125.89,49.05,155.14l134.63,69.94C369.41,759.74,366.79,756.95,364.17,754.07"/>
			<path class="st4" d="M233.43,454.28c32.82-29.55,72.55-47.8,74.22-48.56c0.63-0.26,50.51-19.18,134.63-22.66
				c59.91-2.44,102.62,4.19,122.74,8.35c-7.48-14.06-21.87-38.7-40.82-59.75c-21.63-24.01-43.02-37.65-53.84-43.64l-18.01-9.35
				c-56.29-29.25-125.89-7.24-155.14,49.06l-5.38,10.35c-0.13,0.24-0.41,0.78-0.88,1.72l-61.29,117.95
				C230.89,456.61,232.14,455.45,233.43,454.28"/>
			<path class="st5" d="M674.11,613.68c-3.2,3.2-6.58,6.41-10.18,9.65c-32.82,29.55-72.55,47.81-74.22,48.58l-0.68,0.28
				c-4.71,2.01-52.72,21.48-133.86,24.83c-58.46,2.41-101.91-5.44-122.59-10.33c7.54,14.13,21.83,38.47,40.57,59.27
				c27.86,30.94,55.21,45.72,58.24,47.29l15.56,8.1c56.29,29.26,125.89,7.25,155.16-49.05L674.11,613.68z"/>
		</g>
	</g>
</g>
</svg>
