<?xml version="1.0" encoding="utf-8"?>
<!-- Generator: Adobe Illustrator 26.3.1, SVG Export Plug-In . SVG Version: 6.00 Build 0)  -->
<svg version="1.1" id="Calque_1" xmlns="http://www.w3.org/2000/svg" xmlns:xlink="http://www.w3.org/1999/xlink" x="0px" y="0px"
	 viewBox="0 0 1920 1080" style="enable-background:new 0 0 1920 1080;" xml:space="preserve">
<style type="text/css">
	.st0{fill:#DC4E40;}
	.st1{fill:#00A363;}
	.st2{fill:#4D7CBD;}
	.st3{fill:none;stroke:#3981C3;stroke-width:0.25;stroke-miterlimit:10;}
	.st4{fill:#EDAD20;}
	.st5{fill:none;stroke:#DC4E40;stroke-width:0.25;stroke-miterlimit:10;}
	.st6{fill:#808080;}
</style>
<g>
	<g>
		<path class="st0" d="M188.02,459.07c-37.98,28.23-94.43,25.51-129.78,61.28v57.87c43.39,26.73,86.89,53.14,129.78,80.56V459.07z"
			/>
		<path class="st1" d="M366.44,241.57c-25.83,9.94-50.83,22.6-75.25,37.87c-9.24,5.83-14.96,8.24-9.14,20.9
			c13.05,28.54,3.53,62.59,28.14,95.13c-31.95-4.61-54.56,2.42-73.54,16.07V663.5c47.42-13.15,90.62-29.23,129.79-47.01
			L366.44,241.57L366.44,241.57z"/>
		<path class="st1" d="M366.44,786.76V668.02c-39.39,15.06-78.26,25.51-115.33,32.34C290.68,727.49,329.37,755.92,366.44,786.76"/>
		<path class="st2" d="M415.06,824.24c16.97,9.14,35.17,16.88,47.11,38.38c6.03,10.75,54.45,3.52,82.68-15.68v-284.9
			c-41.79,36.07-85.68,63.8-129.78,85.19L415.06,824.24L415.06,824.24z"/>
		<path class="st3" d="M415.06,824.24c16.97,9.14,35.17,16.88,47.11,38.38c6.03,10.75,54.45,3.52,82.68-15.68v-284.9
			c-41.79,36.07-85.68,63.8-129.78,85.19L415.06,824.24L415.06,824.24z"/>
		<path class="st2" d="M544.85,218.07c-9.65,1.11-19.39,1.7-29.04,1c-35.16-2.52-68.61,0.3-100.76,7.64v365.67
			c50.93-27.42,94.02-57.57,129.78-87.4L544.85,218.07L544.85,218.07z"/>
		<path class="st3" d="M544.85,218.07c-9.65,1.11-19.39,1.7-29.04,1c-35.16-2.52-68.61,0.3-100.76,7.64v365.67
			c50.93-27.42,94.02-57.57,129.78-87.4L544.85,218.07L544.85,218.07z"/>
		<path class="st4" d="M627.53,373.98c-9.94-12.96-34.56-31.53-23.71-42.4c34.55-34.56,14.46-78.66,28.53-115.32
			c-12.96-4.02-26.02-4.72-38.98-4.02v248.64c21.09-20.9,38.38-40.79,52.54-58.57C640.69,392.77,634.57,383.22,627.53,373.98"/>
		<path class="st4" d="M710.01,669.53c-30.33-11.95-38.78-34.56-35.66-67.81c5.52-58.47,5.93-116.33-14.67-170.18
			c-20.8,31.14-43,58.88-66.1,83.67v293.15c38.98-28.14,80.77-51.84,121.05-77.97c11.76-7.64,33.55-9.94,29.84-31.84
			C741.34,680.28,725.48,675.76,710.01,669.53"/>
		<path class="st0" d="M744.76,284.67c0,0-34.76,72.53-90.21,83.98c0,0,15.88,3.32,36.36,0c0,0-169.37,352.52-677.49,363.96
			C13.43,732.62,546.95,863.61,744.76,284.67"/>
		<path class="st5" d="M744.76,284.67c0,0-34.76,72.53-90.21,83.98c0,0,15.88,3.32,36.36,0c0,0-169.37,352.52-677.49,363.96
			C13.43,732.62,546.95,863.61,744.76,284.67"/>
		<path class="st2" d="M888.22,465.2h-19.28l74.73-172.79h17.07l74.25,172.79h-19.5l-19.08-45.41H907.1L888.22,465.2z
			 M913.63,403.72h76.15l-38.08-91.81L913.63,403.72z"/>
		<rect x="1090.65" y="280.66" class="st2" width="16.57" height="184.55"/>
		<path class="st2" d="M1188.49,488.1c9.04,11.76,26.12,21.01,43.7,21.01c32.45,0,44.7-20.29,44.7-44.9v-21.5h-0.5
			c-8.74,14.37-26.63,22.5-43.21,22.5c-35.66,0-59.06-24.61-59.06-58.06c0-32.45,23.41-59.07,59.06-59.07
			c16.58,0,34.16,8.04,43.21,22.71h0.5v-19.79h16.58V464.2c0,24.61-11.46,59.57-61.99,59.57c-21.19,0-41.29-8.55-54.94-22.91
			L1188.49,488.1z M1234.8,451.03c25.41,0,43.89-17.78,43.89-44.4c0-23.92-18.58-44.71-43.89-44.71c-27.31,0-43.2,20.8-43.2,44.71
			C1191.6,430.74,1207.48,451.03,1234.8,451.03"/>
		<path class="st2" d="M1471.08,412.46h-94.74c0.7,22.71,18.09,41.5,41.69,41.5c17.38,0,30.04-9.24,36.57-19.79l12.46,9.74
			c-13.67,17.37-30.23,24.21-49.03,24.21c-33.95,0-59.06-25.62-59.06-60.07s25.11-60.07,57.57-60.07
			c35.86,0,54.65,25.62,54.65,56.67C1471.38,406.82,1471.38,409.54,1471.08,412.46z M1454.49,399.29
			c-1.01-21.5-14.16-37.38-37.87-37.38c-22.19,0-38.77,17.79-39.98,37.38H1454.49z"/>
		<path class="st2" d="M1537.78,376.09c0-6.13-0.21-17.38-1.01-25.11h15.88c0.7,6.12,1,14.67,1,19.49h0.51
			c6.64-13.47,20.29-22.51,36.57-22.51c4.11,0,7.33,0.21,10.94,1.21l-2.21,15.67c-1.9-0.7-7.02-1.51-11.75-1.51
			c-17.58,0-33.44,12.65-33.44,43.2v58.57h-16.58v-89H1537.78z"/>
		<path class="st2" d="M1664.96,318.72c-5.82,0-11.75-4.92-11.75-11.75c0-6.83,5.83-11.75,11.75-11.75
			c5.83,0,11.76,4.92,11.76,11.75C1676.72,313.81,1670.78,318.72,1664.96,318.72z M1673.2,465.2h-16.58V350.98h16.58V465.2z"/>
		<path class="st2" d="M1820.18,391.46c0-19.79-10.76-29.53-30.55-29.53c-13.66,0-25.91,5.32-33.95,13.46l-9.25-10.95
			c9.55-9.54,25.41-16.37,44.91-16.37c24.61,0,44.4,13.47,44.4,41.5v50.02c0,8.74,0.7,19.09,1.91,25.63h-14.87
			c-1.01-5.64-1.7-12.47-1.7-18.59h-0.51c-10.45,15.37-22.91,21.5-41.5,21.5c-17.38,0-39.58-9.25-39.58-34.66
			c0-35.16,38.77-38.28,80.56-38.28v-3.71L1820.18,391.46L1820.18,391.46z M1815.24,408.04c-27.13,0-58.56,3.22-58.56,24.61
			c0,16.37,13.86,21.7,26.82,21.7c23.41,0,36.56-17.59,36.56-37.87v-8.44L1815.24,408.04L1815.24,408.04z"/>
	</g>
	<g>
		<g>
			<path class="st6" d="M1803.4,734.27h16.28v-0.11c-0.4-0.3-0.8-0.7-1.2-1.1c-0.41-0.41-0.8-1.01-1.2-1.61
				c-0.41-0.6-0.6-1.41-0.91-2.21c-0.21-0.8-0.4-1.8-0.4-2.81c0-1.6,0.3-3.11,0.9-4.52s1.51-2.6,2.61-3.61
				c1.11-1,2.42-1.8,3.82-2.31c1.51-0.51,3.11-0.8,4.82-0.8c1.7,0,3.32,0.3,4.82,0.8c1.51,0.51,2.81,1.31,3.92,2.31
				c1.11,1.01,2.01,2.21,2.6,3.61c0.7,1.41,1.01,3.02,1.01,4.72c0,1.61-0.41,3.21-1.12,4.61c-0.7,1.41-1.69,2.52-3.1,3.32v0.1h3.52
				v5.53h-36.46v-5.93L1803.4,734.27L1803.4,734.27z M1828.21,721.01c-0.9,0-1.8,0.1-2.7,0.41c-0.91,0.29-1.71,0.7-2.42,1.2
				c-0.71,0.5-1.31,1.2-1.7,2.11c-0.41,0.8-0.6,1.8-0.6,2.91c0,1.11,0.2,2.02,0.7,2.81c0.51,0.8,1.01,1.51,1.7,2.12
				c0.71,0.6,1.52,1,2.42,1.3c0.9,0.3,1.8,0.51,2.71,0.51c0.9,0,1.8-0.21,2.7-0.51c0.9-0.3,1.7-0.79,2.42-1.3
				c0.7-0.61,1.3-1.31,1.7-2.12c0.4-0.79,0.6-1.8,0.6-2.81c0-1.11-0.21-2.11-0.7-2.91c-0.41-0.8-1.01-1.51-1.71-2.11
				c-0.69-0.51-1.51-1.01-2.41-1.2C1830.02,721.11,1829.11,721.01,1828.21,721.01"/>
			<path class="st6" d="M1816.76,712.98v-6.43l16.88-6.43v-0.1l-16.88-5.72v-6.02l28.13,10.95c1.11,0.4,2.01,0.89,2.81,1.3
				c0.8,0.51,1.52,1.11,2.12,1.7c0.6,0.7,1,1.51,1.31,2.42c0.29,0.9,0.4,2.01,0.4,3.31c0,0.51,0,1.01-0.11,1.52
				c-0.1,0.5-0.1,1-0.29,1.51l-5.02-0.51c0.1-0.4,0.2-0.8,0.3-1.11c0-0.4,0.1-0.7,0.1-1c0-0.61-0.1-1.11-0.21-1.52
				c-0.1-0.4-0.4-0.79-0.69-1.11c-0.3-0.3-0.71-0.5-1.11-0.8c-0.51-0.2-1.01-0.5-1.61-0.7l-2.91-1.2L1816.76,712.98z"/>
			<path class="st6" d="M1808.92,673.4c-0.9,0-1.7-0.3-2.42-1c-0.7-0.71-1-1.61-1-2.61c0-1.11,0.3-1.91,1-2.7
				c0.71-0.71,1.52-1.11,2.53-1.11c1,0,1.8,0.4,2.51,1.11c0.71,0.7,1.01,1.6,1.01,2.7c0,1.11-0.3,1.91-1.01,2.61
				C1810.63,673.1,1809.83,673.4,1808.92,673.4 M1816.76,672.59v-5.83h23.2v5.83H1816.76z"/>
			<path class="st6" d="M1834.64,659.94l-12.96-13.15c-1-1.12-2.11-1.91-3.11-2.53c-1.01-0.6-2.21-0.89-3.61-0.89
				c-1.6,0-2.91,0.5-3.81,1.6c-0.91,1.01-1.41,2.31-1.41,3.92c0,1.6,0.5,2.91,1.7,3.92c1.11,1,2.52,1.6,4.21,1.8l-0.9,5.63
				c-1.4-0.21-2.7-0.6-3.92-1.2c-1.2-0.6-2.2-1.52-3.1-2.42c-0.91-1-1.52-2.21-2.01-3.52c-0.51-1.31-0.71-2.81-0.71-4.32
				c0-1.52,0.21-2.92,0.6-4.33s1.01-2.61,1.91-3.61c0.8-1.11,1.9-1.91,3.11-2.52c1.2-0.6,2.71-0.9,4.32-0.9
				c1.11,0,2.12,0.1,3.02,0.41c0.9,0.3,1.8,0.7,2.71,1.2c0.79,0.51,1.6,1.11,2.41,1.7c0.8,0.7,1.51,1.41,2.21,2.11l9.44,9.84v-15.37
				h5.33v22.7h-5.43v-0.09H1834.64z"/>
			<path class="st6" d="M1805.8,630v-13.37c0-1.31,0.21-2.52,0.51-3.81c0.3-1.2,0.8-2.42,1.51-3.32c0.71-1.01,1.61-1.81,2.71-2.42
				c1.11-0.6,2.42-0.9,3.92-0.9c1.91,0,3.52,0.51,4.82,1.61c1.2,1.11,2.11,2.52,2.7,4.32h0.11c0.3-2.11,1.11-3.92,2.52-5.33
				s3.21-2.11,5.52-2.11c1.91,0,3.42,0.4,4.72,1.1c1.31,0.71,2.31,1.71,3.02,2.92c0.8,1.2,1.3,2.6,1.7,4.12
				c0.3,1.51,0.51,3.1,0.51,4.71v12.36h-34.27V630z M1819.68,623.97v-5.43c0-2.01-0.41-3.61-1.21-4.62c-0.8-1.1-1.91-1.6-3.42-1.6
				c-1.51,0-2.6,0.51-3.32,1.6c-0.6,1.12-1,2.81-1,5.13v4.92H1819.68z M1834.84,623.97v-5.43c0-0.8-0.1-1.61-0.21-2.52
				c-0.1-0.9-0.3-1.7-0.69-2.52c-0.41-0.7-0.91-1.41-1.52-1.9c-0.6-0.51-1.6-0.71-2.7-0.71c-1.8,0-3.02,0.6-3.81,1.8
				c-0.71,1.2-1.12,3.11-1.12,5.53v5.72h10.05V623.97z"/>
		</g>
		<rect x="873.64" y="540.84" class="st6" width="48.43" height="199.4"/>
		<polygon class="st6" points="1089.93,740.26 1009.68,609.86 1008.86,609.86 1009.97,740.26 963.26,740.26 963.26,540.84 
			1018.21,540.84 1098.18,670.93 1098.97,670.93 1097.87,540.84 1144.59,540.84 1144.59,740.26 		"/>
		<polygon class="st6" points="1284.52,740.26 1236.41,740.26 1160.96,540.84 1215,540.84 1261.22,682.18 1262.32,682.18 
			1308.23,540.84 1361.47,540.84 		"/>
		<polygon class="st6" points="1377.75,740.26 1377.75,540.84 1511.87,540.84 1511.87,581.73 1424.27,581.73 1424.27,619.2 
			1507.04,619.2 1507.04,657.78 1424.27,657.78 1424.27,699.16 1516.89,699.16 1516.89,740.26 		"/>
		<path class="st6" d="M1648.99,592.68c-8.14-10.45-23.1-17.18-35.45-17.18c-12.36,0-27.93,4.22-27.93,19.99
			c0,13.26,11.85,17.18,30.73,23.41c27.03,8.74,61.99,19.99,61.99,59.97c0,45.91-36.87,66.51-76.35,66.51
			c-28.42,0-56.86-10.45-74.64-28.73l31.54-32.15c9.84,12.15,27.32,21.09,43.09,21.09c14.68,0,27.63-5.63,27.63-21.7
			c0-14.96-15.16-20.29-41.39-28.42c-25.62-8.14-50.94-21.09-50.94-57.16c0-44.21,39.68-62.48,77.16-62.48
			c22.5,0,47.62,8.44,65.29,24.51L1648.99,592.68z"/>
		<polygon class="st6" points="1795.46,582.03 1795.46,740.36 1747.34,740.36 1747.34,582.03 1690.98,582.03 1690.98,540.95 
			1851.82,540.95 1851.82,582.03 		"/>
		<g>
			<path class="st6" d="M1852.6,513.35c0-3.73,0.71-7.22,2.14-10.49c1.43-3.26,3.36-6.12,5.81-8.56c2.44-2.44,5.3-4.38,8.56-5.81
				c3.27-1.43,6.76-2.14,10.49-2.14c3.72,0,7.22,0.71,10.49,2.14c3.27,1.43,6.12,3.36,8.56,5.81c2.44,2.44,4.38,5.3,5.81,8.56
				c1.43,3.27,2.14,6.76,2.14,10.49c0,3.73-0.71,7.22-2.14,10.48c-1.43,3.27-3.36,6.12-5.81,8.56c-2.44,2.44-5.3,4.38-8.56,5.81
				c-3.27,1.43-6.76,2.14-10.49,2.14c-3.73,0-7.22-0.71-10.49-2.14c-3.27-1.43-6.12-3.36-8.56-5.81c-2.44-2.44-4.38-5.3-5.81-8.56
				C1853.31,520.57,1852.6,517.08,1852.6,513.35z M1859.56,513.35c0,2.9,0.52,5.62,1.56,8.16c1.04,2.54,2.45,4.75,4.25,6.64
				c1.79,1.89,3.91,3.37,6.35,4.46c2.44,1.09,5.07,1.63,7.87,1.63c2.8,0,5.43-0.54,7.87-1.63c2.44-1.09,4.56-2.58,6.35-4.46
				c1.79-1.89,3.2-4.1,4.25-6.64c1.04-2.54,1.56-5.26,1.56-8.16s-0.52-5.62-1.56-8.16c-1.04-2.54-2.46-4.75-4.25-6.64
				c-1.79-1.89-3.91-3.37-6.35-4.46c-2.44-1.09-5.07-1.63-7.87-1.63c-2.81,0-5.43,0.54-7.87,1.63c-2.44,1.09-4.56,2.58-6.35,4.46
				c-1.79,1.89-3.21,4.1-4.25,6.64C1860.08,507.73,1859.56,510.45,1859.56,513.35z M1869.21,498.91h9.07c1.64,0,3.23,0.12,4.75,0.36
				c1.52,0.24,2.88,0.67,4.06,1.27c1.19,0.61,2.14,1.45,2.87,2.54c0.73,1.09,1.09,2.48,1.09,4.17c0,1.26-0.19,2.41-0.58,3.45
				c-0.39,1.04-0.88,1.92-1.49,2.65c-0.61,0.73-1.28,1.32-2.03,1.78c-0.75,0.46-1.51,0.74-2.29,0.84l7.26,11.25h-7.62l-6.46-10.89
				h-1.67v10.89h-6.97V498.91z M1876.11,510.66h3.41c0.43,0,0.92-0.02,1.45-0.07s1.03-0.17,1.49-0.36c0.46-0.19,0.85-0.5,1.16-0.91
				c0.32-0.41,0.47-0.98,0.47-1.71c0-0.73-0.16-1.29-0.47-1.71c-0.32-0.41-0.7-0.71-1.16-0.91c-0.46-0.19-0.96-0.31-1.49-0.36
				s-1.02-0.07-1.45-0.07h-3.41V510.66z"/>
		</g>
	</g>
</g>
</svg>
